/* XPM */
static char *Free_Converter_com_screen_shot_2016_06_15_at_7_53_92491606[] = {
/* columns rows colors chars-per-pixel */
"64 64 256 2 ",
"   c #040404",
".  c #0A0705",
"X  c #060609",
"o  c #07090C",
"O  c #0B0A0C",
"+  c #0A0806",
"@  c #130C0C",
"#  c #180B0A",
"$  c #0C0D13",
"%  c #0D0E1A",
"&  c #110E13",
"*  c #150F15",
"=  c #0E111B",
"-  c #0D1015",
";  c #131115",
":  c #1B1214",
">  c #13131B",
",  c #1A151B",
"<  c #1B191D",
"1  c #15181B",
"2  c #16120E",
"3  c #230E0B",
"4  c #28130D",
"5  c #231414",
"6  c #231A1D",
"7  c #2B1C1C",
"8  c #281716",
"9  c #351B18",
"0  c #33130F",
"q  c #37221B",
"w  c #2A291B",
"e  c #141522",
"r  c #161924",
"t  c #1C1A24",
"y  c #1C1D2B",
"u  c #161828",
"i  c #181C33",
"p  c #0E1121",
"a  c #221D23",
"s  c #261D28",
"d  c #331F23",
"f  c #1D212E",
"g  c #1D2339",
"h  c #23232D",
"j  c #2A242B",
"k  c #292327",
"l  c #342323",
"z  c #3C2C2B",
"x  c #382627",
"c  c #232433",
"v  c #2C2C35",
"b  c #252B3C",
"n  c #2B2C3B",
"m  c #272737",
"M  c #352C37",
"N  c #2D323B",
"B  c #33323C",
"V  c #3B343B",
"C  c #3B3437",
"Z  c #3B352B",
"A  c #421D13",
"S  c #43241C",
"D  c #47251A",
"F  c #5D301B",
"G  c #67341B",
"H  c #432D2B",
"J  c #472A26",
"K  c #4B322C",
"L  c #46312A",
"P  c #53322B",
"I  c #593528",
"U  c #432E34",
"Y  c #433333",
"T  c #4B343A",
"R  c #4B3A3C",
"E  c #473638",
"W  c #533B3C",
"Q  c #573935",
"!  c #522E27",
"~  c #653928",
"^  c #673C2E",
"/  c #58423E",
"(  c #64433C",
")  c #6A4638",
"_  c #764935",
"`  c #754631",
"'  c #1C2647",
"]  c #242B42",
"[  c #272B45",
"{  c #2B3247",
"}  c #333543",
"|  c #353944",
" . c #3D3A43",
".. c #333B4C",
"X. c #3B3C4B",
"o. c #383547",
"O. c #363B55",
"+. c #2C3555",
"@. c #423C44",
"#. c #433D4A",
"$. c #4B3B46",
"%. c #553D45",
"&. c #473E50",
"*. c #3C414D",
"=. c #3B4457",
"-. c #3A4665",
";. c #334772",
":. c #4B4244",
">. c #44424C",
",. c #4A444B",
"<. c #5C4344",
"1. c #54424B",
"2. c #5C4B4B",
"3. c #574548",
"4. c #434453",
"5. c #4B4C5B",
"6. c #484858",
"7. c #564957",
"8. c #58545A",
"9. c #4D515C",
"0. c #654A47",
"q. c #724F43",
"w. c #6B524A",
"e. c #785549",
"r. c #654E54",
"t. c #685658",
"y. c #755C5A",
"u. c #775A53",
"i. c #7B625E",
"p. c #68615F",
"a. c #474C66",
"s. c #4C5467",
"d. c #535363",
"f. c #585869",
"g. c #475379",
"h. c #575A73",
"j. c #504B66",
"k. c #665966",
"l. c #6C5D6D",
"z. c #5A6376",
"x. c #5C616E",
"c. c #696368",
"v. c #796767",
"b. c #676877",
"n. c #79727A",
"m. c #756D74",
"M. c #87543A",
"N. c #8B5234",
"B. c #99613C",
"V. c #AC6330",
"C. c #855C48",
"Z. c #825B52",
"A. c #95654A",
"S. c #876558",
"D. c #956A55",
"F. c #9B725C",
"G. c #9A7459",
"H. c #8D654D",
"J. c #A67657",
"K. c #B47E58",
"L. c #A36A47",
"P. c #8B6C64",
"I. c #846C69",
"U. c #89726B",
"Y. c #977568",
"T. c #887677",
"R. c #957B76",
"E. c #916E62",
"W. c #A47D6A",
"Q. c #B27E61",
"!. c #99817A",
"~. c #AB836A",
"^. c #B8896A",
"/. c #A88675",
"(. c #B48C77",
"). c #B89179",
"_. c #B7835D",
"`. c #C38C67",
"'. c #C49878",
"]. c #CC9770",
"[. c #D5A37C",
"{. c #C1855C",
"}. c #576A8C",
"|. c #666A85",
" X c #687589",
".X c #787987",
"XX c #697798",
"oX c #757D98",
"OX c #726B82",
"+X c #566E99",
"@X c #344F84",
"#X c #897D84",
"$X c #7A8498",
"%X c #768393",
"&X c #7C88A6",
"*X c #5F86BC",
"=X c #759BCE",
"-X c #988686",
";X c #868799",
":X c #958D96",
">X c #9C949B",
",X c #8F868A",
"<X c #A58B85",
"1X c #A6918B",
"2X c #B89887",
"3X c #A79797",
"4X c #B59D96",
"5X c #A48E92",
"6X c #BAA299",
"7X c #9998A5",
"8X c #8C97AE",
"9X c #A49BA2",
"0X c #9BA1B1",
"qX c #AAA3A8",
"wX c #B8A7A5",
"eX c #A9A7B5",
"rX c #B6B1B9",
"tX c #C49D85",
"yX c #C8A48B",
"uX c #D4A985",
"iX c #DCB48E",
"pX c #C9AA96",
"aX c #D9B598",
"sX c #D0B099",
"dX c #E2BD97",
"fX c #E1B183",
"gX c #C4ADA3",
"hX c #CCB5A9",
"jX c #D9BBA4",
"kX c #CAB9B2",
"lX c #E7C59D",
"zX c #DDC1A8",
"xX c #E6C7A7",
"cX c #EDD0AD",
"vX c #E6CCB5",
"bX c #EBD4BB",
"nX c #F1D9B8",
"mX c #F5D7AD",
"MX c #AFB5C9",
"NX c #92A0C3",
"BX c #C4BDC7",
"VX c #BAC4DC",
"CX c #CFCACA",
"ZX c #EDD8C5",
"AX c #F2DDC3",
"SX c #F2DFCA",
"DX c #F0DFD1",
"FX c #F6E3C9",
"GX c #F8E9D7",
"HX c #FBF0DC",
"JX c #FCF4EB",
"KX c #FCF3E6",
"LX c #FFFEFC",
"PX c #FEF9F3",
"IX c #F8EEE4",
"UX c None",
/* pixels */
"UXUXUXUXUXUXUXUXUXUXUXUXUXUXUXUXUXUXUXUXUXUXUXUXUXUXUXUXUXUXUXUXUXUXUXUXUXUXUXUXUXUXUXUXUXUXUXUXUXUXUXUXUXUXUXUXUXUXUXUXUXUXUXUX",
"UXUXUXUXUXUXUXUXUXUXUXUXUXUXUXUXUXUXUXUXUXUXUXUXUXUXUXUXUXUXUXUXUXUXUXUXUXUXUXUXUXUXUXUXUXUXUXUXUXUXUXUXUXUXUXUXUXUXUXUXUXUXUXUX",
"UXUXUXUXUXUXUXUXUXUXUXUXUXUXUXUXUXUXUXUXUXUXUXUXUXUXUXUXUXUXUXUXUXUXUXUXUXUXUXUXUXUXUXUXUXUXUXUXUXUXUXUXUXUXUXUXUXUXUXUXUXUXUXUX",
"UXUXUXUXUXUXUXUXUXUXUXUXUXUXUXUXUXUXUXUXUXUXUXUXUXUXUXUXUXUXUXUXUXUXUXUXUXUXUXUXUXUXUXUXUXUXUXUXUXUXUXUXUXUXUXUXUXUXUXUXUXUXUXUX",
"  $ = - o X + w 2 $ i s f r t N M o.o.o.s s u g [ $ .   . . + + 2 a a : # 3 2 k k & * 2 , * * - @ ; < $ + o +     w Z o $ X     ",
"o - = - o o w Z @ a m m h a h B o.o.M n * , , , > @ .   . . O # @ : j : : , < < a a a 1 ; $ * * & * < - + X X     2 w O o X $ o ",
"= = $ o - - - 2 K a m g [ v v @.o.x 7 6 * * * O O + . . . . # , h : j 7 a a 6 w j h a , , * * * ; & O + O X O o X 1 O + X X o u ",
"r - o 1 r -   1 <.] u t M O.h.x.&.8 7 8 # * O O . . + + . . + 5 5 5 6 , 6 6 w x 6 , t f ] f & & @ - O @ X O $ $ $ 2 1 O X o o - ",
"e y e > p $ $ % i ;.g y m M f.|.j.M 5 # # @ # O + . + + @ # * 8 5 5 6 j s 3 8 9 : , s [ O.[ * + @ ; @ $ @ + % $ - 1 h > $ - e > ",
"% f ..u % $ $ u +.[ { o.o.o.#.j.l.%.0 # @ @ O * * + # # @ * 0 s k M 7 7 5 3 5 5 3 s M o.6.m * # O > + @ > $ @ - > > t > % c ..b ",
"$ u -.n > - % [ +X+Xg.=.j.&.#.&.U T d , : # O . : # # 3 # d U U %.7.M 8 3 4 9 U d s %.y.M 5 s , , B t 2 y , $ > > y t > b  X8X}.",
"$ U { i g e : M +X=XXX6.5.#.@.T U %.M m s # # # 3 3 0 3 d T r.r.l.OXb.7.U 9 d d d d d T x d M j v =.v , , $ % t t r b O.{ ;.XX$X",
"* 9 e { O.O.M O.g.|.f.@.%.7.1.Q ^ %.&.d j 5 3 3 3 9 S S %.r.%.%.k.b.r.%.r.T W U U U U U T U U x V V b v { b m f r - ] %Xz.+.b f ",
"! D e +.7.I.o.X.j.#.U $.$.7.Q ^ N.G &.T U d 0 0 9 ! %.r.0.l.r.T.#Xr.<.%.r.r.k.k.7.r.l.k.r.t.0.Q T @...} } n b b p - = g -.' - - ",
"* & = ] g +.+.j.5.j 7 x T x K ` V.` $.$.T x 0 0 ! 1.0.e.r.i.y.5X0Xr.y.I.#X#X#X7X:X#X7X>X:X-XR.F.^ $. .v B h f 1 - - - - +.{ p - ",
"= $ = i u m +.6.&.&.V &.U S Q ~ G q.j.7.U 9 A ! <.t.i.#XI.Z.R.5XqX5X5X5X5X0XBXBXMXBXVXMXrXqX3X-Xt.r.>.@.V t O & - 1 1 1 f { = X ",
"$ $ > i i [ O.g.j.XXNX&Xj.Z.Q ! ! %.T T U J ! ! i.#X5XBX5X<X5XgXrXkXwX5X3X4XrXwXqXrXVXCXCX9X>X7X7X$Xb.#.M n j , , , * e $ X + X ",
"- % e { O.m } h.OXXXNXNX;Xr.Q %.%.7.r.%.! ! 0.l.#X#XwXCX2X4XgXBXCXCXBX4XY.R.R.5XU.U.4X1X9X>X9X9XeX0X.X6.M M 6.+.s s y e & $ + . ",
"% p b O.O.[ 6.|.XX+XXX&XOXT ! 7.l.OXl.<.^ <.Z.T.5X4XgX2XgXkXhXhXkXgX4XQ.2X<XW.W.H.E.E.Z.U.>XT.i.#X:X#Xf.&.o.O.g.m i > , % $ O   ",
"> > [ f m t.j.f.l.j.l.l.j.Q U T OXNXl.0.r.i.P./.gXBXpX`.sXsX`.].`.'.yXyX`.{.(.W.W.E.S.E.Y.U.I.I.y.l.T.n.d.#.X.-.O.m u $ @ e $ . ",
"- y b y c o.h.&.&.j.r.r.j.%.T U 7.#Xl.y.Z.P.R.wXCXhX`.'.aX`.`.uXpXpXuX].{.tXQ.Q.J.F.Y.Y.#X/.S.I.w.T.t.v.n.9.s.a.g.o.m t r ' u X ",
"= b 5.t e O.5.#.j.j.7.%.7.7.%.T %.l.l.Z.Z.P.wXkXpX`.K.`.uX].uXjXvXzXvXuXuXsXyX(.W.D.C.S.R.3X>X#X( m.T.2..Xm.x. X|.a.] g g g.}.= ",
"r f y ; y 6.#.&.7.j.j.l.k.%.%.7.<.r.Z.0.Z.Y.6XhXyXuX].].iXuXdXbXZXDXZXvXzXaXaXtX2XW.D.Z.I.#X>XT.I.,Xv.w.c..X%X%X|.g...i % e +.p ",
"| ..@ % t n j.#.d T %.r.%.T ! <.( Z.P.Z.A.J.(.yXuXiXiXiXxXlXZXDXDXDXGXZXZXvXzXiXtXtXW.R.Y.i.T.I.i.v.v.m.c.%X;X7XOXg.[ t * > = p ",
"] c O - > m B V @.U $.W ! 7.r.<.Z.P.R.D.A.B.`.[.uXzXvXxXlXcXFXGXGXGXIXIXIXDXzXaXuX'.gXgX<XE.Z.q.w.T.m.I.c.c.b.b.b.9.f : e { ' p ",
"] $ + + , #.6 d x U %.J T l.l.) I.R.5XY.A.V.'.[.[.xXZXDXcXnXFXGXIXIXJXJXIXZXZXzXaX'.2X6XBXwXS._ ) w.p.v.m.8.9.4.s. Xh.a , y y $ ",
"e - + O & j f d d U T D U r.q.q.T.5XwX4XJ.K.[.[.fXxXDXSXFXGXIXKXGXGXIXGXSXcXxXaXjXsX2X2XwXrXR.Z.q.w.p.w.p.8.:.,.>.|.a.v m t t b ",
"] { - O @ : 7 x d x P Q ^ Q ` q.E.<X4X6X)._.uXaXdXcXFXmXFXHXPXJXJXJXKXGXAXcXdXiXaXuX6X2XY.<XR.Y.H.p.p.2.8.2.Y Z  .| B v h % > y ",
"h ] $ + 2 6 j d d S T r.^ ` Z.Z.R.R.Y.<XpXpXjXxXlXcXnXmXFXPXLXLXLXPXPXGXAXAXlXfX[.`.~.~.H.H.U.!.H.w.p.w.8.3.:.8.6.N v w a > i g ",
"$ = - O & , l 8 0 J ! ( ( v.i.P.5X<XW.W.2XjXjXvXlXlXmXFXKXPXLXLXLXLXPXGXAXSXbXiXuX{.V.L.B.N.H.!.!.!.u.t.t.8.p.%Xd.B k : * - i ' ",
"X O O O @ : 7 9 d U J Q r.l.Z.Z.W.wXgX2X^.yXaXxXlXcXAXHXKXPXLXLXLXLXPXIXGXIXbXzXuX`.L.B.A.M.S.eXeX9XI.u.p.t.8.m.x.b.*.6 x 5 e e ",
"X   O O & 6 k 8 0 0 9 W OXZ.Z.D.W.4XhX2X~.`.jXbXcXlXnXGXKXPXLXLXLXLXPXIXDXGXcXdXaXyXL.M.M.G u.!.eXBX:Xi.2.8.8.8.b.%Xx.j ) x u u ",
"  + o N =.h w 7 5 0 S W 0.u.C.D.A.G.G.~.).'.sXlXlXxXcXFXHXJXPXPXPXJXKXKXGXAXxXfXuXpXW.D.` G G M.Y.9X0X#Xw.<.R :.>.x.!.2.a r - O ",
"O O $ a.4.7 : 8 8 q J D Q I ` A.H.H.G.J.~.sXjXzXcXcXnXFXGXHXHXHXKXHXGXFXAXAXdX[.aXpX(.D.q.~ G _ Z.#X7XU.p.w./ Y  .x.x.*.*.f ; O ",
"& O O f < : 5 w 8 8 x S P Q q.S.G.G.~.3X).tXsXlXbXbXnXFXFXGXFXHXGXGXnXnXZXZXxXiXyXtXJ.M._ ~ F ` Z.R.R.P.i.v.t.K 0.6.f.*.=.b c ..",
"- 2 O * 1 2 : 7 9 q x K W w.w.e.Y.Y./.3XhXpXsXjXvXbXAXFXnXFXFXGXGXSXAXcXbXvXvXaX'.Q.L._ ^ G F G _ E.R.P.v.#Xn.3.Q >.d.*.B | a.&X",
"& ; > < h a 6 7 x l H E 3.2./ q.G.~.!.2XsXhXsXuXsXcXbXSXnXAXFXAXnXcXxXvXZXzXaXsXyX~.D.e.~ F F ~ _ e.R.!.T.7X0Xm.R  .,.>.N m ..%X",
"t f > ; , a K l l z Y L L L q I w.S.G.)./.2XyXyXjXiXdXxXnXlXlXcXZXZXxXvXvXaXuXsXyX(.S.e.) ~ ) ) e.U.>X5X>X0X0X%Xx.,.V N k 1 g { ",
"[ m k : 2 4 F q 8 q Z q q q q D ( _ e.G.A.~.6XtX'.'.[.zXvXvXbXcXxXxXaXjXjXaXtXpX2XD.e.q.~ ~ i.u.q.I.T.I.3XBXeX;Xn.4.,.9.| t e u ",
"n m h < < : 6 w 7 7 J Z Y L J K K ^ w.u.H.G.~.J._.'.'.uXiXaXjXzXuX[.jXzXjXjXtX2XD.q.u.( I ! 0.u.) u.i.y.:XVXNX8Xz.9.v >.%XX.= % ",
"c { { m 6 < j  .C l E R Z Y L L D / ) ` ` N.N.A.J.J.K.K._.{.`.`.].tXzXZXjXtX2X(.M.) i./ D D I ( I w.i.v.#X8X8X8X Xd.N v N < 1 - ",
"c [ a.h.s 5 7 j x C C Z Z C L K F / Q I ~ ` e.D.H.B.B.J._.K.J.^.tXpXpXhXpXhX6XD.` ( ~ D D 9 D ) <.p.y.v.,XNXMXVX$X>.| *.h - > = ",
"+.-.a.} : 5 6 6 V :.R z H R R W 3.t./ ( ( ) e.G.H.M.B.J.~.(.(.2XyXtX).).gXgX<XC.^ I I D D A D I 0.t.u.v.;X7XNXoX X*.N *.v , - O ",
"s -.;.> , s M 7 E ,.%.%.3.2.k.%.3.R P / Q I q.H.M.H.G.J./.1X(.).2X2XW.pX6X<XU.u.) P P S A D D D W r.t.v.n.5XOXO.6.4.N *.h ; O X ",
"> x.j.> t t j C $.6.T.r.w.7./ K K Q K I ( ( ) u.e.~.D.D.F.G.W.~.W.F./.4X<XS.S.i.( K J D S A J Q T 2.0.c.c.b.h.X.v | N | / 1 - o ",
"y =.o.e H W j E #.h..X1.E / 3.R Q K P K I ( e.U.P.Y.e.H.G.G.C.W.E.W.W.E.I.e.( r.Q L L S S S K Q W 2.2.p.f.h.5.} *.N f N R r - o ",
"+.[ [ ' C E v | #.h.x.5.:.P I / 2./ ) ( I I ~ u.H.e._ G.<X/.<XqXwX<XF.C.q.Q P R :.J q S S T R J 3.2.7.f.8.s.f.>.v v v h h 1 O O ",
"+Xg.O.' u t n N 4.oX|.5.1./ 2.p.w.t.w.w.e.u.e.P.C._ C.3X4X/.qXqX5XR.e.0.Q J H z z z z D K :.K E ,.k.8.>.V V 6.v N v { } N f O + ",
"=Xg.7.i u % e j O.4.6.j.d.#.r.p./ w.( w.u.e.e.u.H.!.!.qX-XS.1X!.i.w.Q L L Z :.C z L U K W %.z R k.b.x. .C j k 6 j ..=.-...1 -   ",
"@X+.' p u $ * f [ M s V 6.@.$.%.2.p.p.I.i.i.S.u.!.qX1X!.!.S.u.w.i.0.L S Z E 8.8.E U Y H $.$.@.#.>.s.z. .d 8 : 2 - a *. Xz.N     ",
"g ' i % % = i i i s s o.4.8.:.R 3.2.t.m.!.!.!.T.>X!.!.U.v.S.q.t.p./ L Z Z :.x. Xc.,.Y z Y E V 4.X.l.-Xs < 6 : @ @ 1 v h.s.9.+   ",
"' u p o $ O $ * S T s [ O.6. .7.7.r.k.OX!.>X!.:X>X#XU.p.y.w./ 3.:.@.R w  .8.c.%Xn.8.$.E z @. .Z 4.s.>.< : : @ & O & | *.v b -   ",
"i p p u % o > 1 r -.] O.+Xa.O.f.8.h.k.OX8X:Xm.:X%Xm.2.3.R / :.1.E *.C C 6.8.%X8Xn.6.5.R Z | >.z 5.-.n , : 4 - h h - v *.1 o o X ",
"p p % u $ X $ 1 r b { ;.*Xg.g.h.d.6.f.&X8X0X;X.X.Xp.L Z l z C :.>.C Z  .*.6.b.0X.Xh.5.9.:.C V *.4.5.f % : 9 > m - 2 - < 2 o X   ",
"u % o o X $ @ $ - & <.s.a.O.a.h.s..Xh.$XoXb.b.8.m.,.Z Z x V *.x.,.B B | X.d.|..Xb.}.s.a.>.9.*.j a c u - & $ O & O + 1 b 1       ",
"p o X X o ,.3.> - , E.I.n n =...| d.h.b.b.9.9.9.9.,.*.*.6.z.x.$Xd.v B *.4.>.x.7.#.4.4.B x l B f , - - - $ X X & ; 1 f f o       ",
"  2 a   X n N r c > v 8.*.-.a.......O.=.s.h.9.4.9.9.4.d.x.x.h.b.4.k B f.9.V M v 5 s @.M 7 t 6 t > - = = $ X $ O - u f - X       ",
"  < v       O $ c r f | 9.%Xz.s.N { } *.*.=.a.x.f.*.6.=.*.N j d.*.k j N B a M j : s j t e t I x + r }.] o $ - O X c =.1         ",
"X +             o X + a z.z.-.=.b n m } b c | %X6.h B N f t , 1 : 6 | B j s j s t t > > e * 6 s b =.XXb   O o +   - r O X + o   ",
"4 4             X X   h z.=.;...g i u e = 1 r N 1 r t t 1 1 ; & + 1 s.h.c m [ s ,.f e i y $ e +.+.+.O.;     X   X o o X   o - X ",
": O       X o X     X - r 1 g g u i u % $ - f v - - O - ; $ + O $ @ m ..m c y 6. X' i +.O.* T 8.g i i o o X   X - X   X X X   X ",
"UXUXUXUXUXUXUXUXUXUXUXUXUXUXUXUXUXUXUXUXUXUXUXUXUXUXUXUXUXUXUXUXUXUXUXUXUXUXUXUXUXUXUXUXUXUXUXUXUXUXUXUXUXUXUXUXUXUXUXUXUXUXUXUX",
"UXUXUXUXUXUXUXUXUXUXUXUXUXUXUXUXUXUXUXUXUXUXUXUXUXUXUXUXUXUXUXUXUXUXUXUXUXUXUXUXUXUXUXUXUXUXUXUXUXUXUXUXUXUXUXUXUXUXUXUXUXUXUXUX",
"UXUXUXUXUXUXUXUXUXUXUXUXUXUXUXUXUXUXUXUXUXUXUXUXUXUXUXUXUXUXUXUXUXUXUXUXUXUXUXUXUXUXUXUXUXUXUXUXUXUXUXUXUXUXUXUXUXUXUXUXUXUXUXUX"
};
